<svg width="799" height="799" viewBox="0 0 799 799" fill="none" xmlns="http://www.w3.org/2000/svg">
<path fill-rule="evenodd" clip-rule="evenodd" d="M399.5 29.5C603.845 29.5 769.5 195.155 769.5 399.5C769.5 603.845 603.845 769.5 399.5 769.5C195.155 769.5 29.5 603.845 29.5 399.5C29.5 195.155 195.155 29.5 399.5 29.5Z" fill="#FB8500"/>
<path fill-rule="evenodd" clip-rule="evenodd" d="M371.814 28.0303C576.971 12.7396 755.679 166.657 770.97 371.814C786.26 576.971 632.343 755.679 427.186 770.97C222.029 786.26 43.321 632.343 28.0303 427.186C12.7397 222.029 166.657 43.321 371.814 28.0303ZM373.523 50.9667C181.034 65.3132 36.6202 232.987 50.9667 425.477C65.3133 617.966 232.987 762.38 425.477 748.033C617.966 733.687 762.38 566.013 748.033 373.523C733.687 181.034 566.013 36.6201 373.523 50.9667Z" fill="#F8F9FA"/>
<path d="M256.344 577.633C198.78 578.915 238.997 728.339 288.958 699.045C254.69 676.529 240.273 610.92 256.344 577.633Z" fill="#F8F9FA"/>
<path fill-rule="evenodd" clip-rule="evenodd" d="M327.535 409.376C396.657 401.718 371.902 506.848 310.26 513.95C313.968 530.593 366.158 503.767 400.107 515.275C413.108 521.538 415.062 547.753 412.018 553.997C438.101 567.596 441.452 610.788 412.018 619.5C469.5 663 377.22 706.004 307.407 697.67C243.052 668.372 258.339 577.484 286.878 509.676C338.635 450.665 309.633 411.36 327.535 409.376ZM400.704 651.107C404.173 643.829 385.851 640.18 386.594 650.153C389.409 654.285 394.798 657.964 400.704 651.107ZM397.025 601.743C396.639 596.558 374.364 600.424 374.773 605.909C371.268 612.688 397.508 608.225 397.025 601.743ZM388.933 553.712C388.524 548.227 354.581 550.256 359.514 555.905C355.897 561.188 389.713 564.183 388.933 553.712Z" fill="#F8F9FA"/>
<path d="M402.081 104.492C439.083 177.145 514.82 332.242 521.987 334.216C515.006 334.736 483.813 373.662 492.624 377.518C574.899 257.069 618.052 365.161 508.093 403.44C524.554 415.75 548.627 398.201 560.59 387.995C569.138 421.954 568.602 421.492 582.328 471.109C593.496 499.859 528.202 558.875 424.483 553.068C425.484 519.4 415.536 493.568 353.618 503.698C392.863 465.175 391.739 389.549 324.187 398.094C281.263 306.531 272.66 312.186 274.447 302.526C281.966 268.874 449.158 191.233 427.361 181.326C426.841 174.345 264.514 270.175 260.872 295.595C255.134 312.49 298.733 366.024 315.435 401.754C298.175 419.085 322.45 435.326 291.65 486.256C220.286 436.924 185.38 392.395 158.015 321.232C177.411 292.21 253.843 201.278 291.524 168.386C298.371 159.352 329.127 175.11 338.4 178.43L320.543 140.653L360.444 164.754L351.175 127.84L387.348 155.729L380.408 123.155L404.979 143.384L402.081 104.492ZM454.487 417.463C439.724 401.015 413.666 441.563 426.19 448.151C431.25 448.776 429.749 435.352 434.957 437.971C469.148 493.082 549.574 489.093 541.779 445.051C538.364 435.278 554.052 428.092 551.575 421.759C543.829 418.74 520.105 463.713 443.375 429.823C438.368 423.177 458.646 426.177 454.487 417.463ZM452.542 445.184C463.735 447.358 492.237 459.774 530.549 442.378C539.208 477.833 476.748 473.964 452.542 445.184ZM437.054 378.651C409.813 255.335 332.782 331.772 402.842 397.245C406.831 396.948 416.007 392.253 418.277 389.076C421.3 375.814 413.933 338.86 385.492 339.375C385.793 309.771 423.954 323.974 432.291 382.014C432.493 384.726 437.641 381.307 437.054 378.651ZM430.884 295.87C427.794 294.771 426.011 297.748 426.011 297.748C422.84 309.015 462.589 364.715 475.94 362.215C479.669 358.428 444.552 337.981 430.884 295.87ZM500.01 335.352C470.022 222.268 406.543 292.18 472.131 351.469C475.123 351.246 484.033 345.668 484.962 341.989C486.123 337.39 475.931 301.548 453.97 296.166C466.863 260.609 492.122 330.425 495.136 337.22C498.253 338.712 500.008 335.357 500.01 335.352ZM398.172 280.77C361.203 248.93 333.15 289.628 347.756 324.137C356.678 329.489 337.78 277.751 395.351 283.283C398.432 284.261 400.32 282.686 398.172 280.77ZM464.714 245.226C447.225 220.458 411.021 231.178 423.728 273.852C431.452 283.304 421.604 231.894 461.846 247.947C463.977 248.797 466.396 247.608 464.714 245.226Z" fill="#F8F9FA"/>
</svg>
