<?xml version="1.0" encoding="utf-8"?>
<!-- Generator: Adobe Illustrator 27.8.1, SVG Export Plug-In . SVG Version: 6.00 Build 0)  -->
<svg version="1.1" id="Calque_1" xmlns="http://www.w3.org/2000/svg" xmlns:xlink="http://www.w3.org/1999/xlink" x="0px" y="0px"
	 width="209" height="104" viewBox="0 0 209 104" style="enable-background:new 0 0 209 104;" xml:space="preserve">
<style type="text/css">
	.st0{fill:#2F2F36;}
	.st1{fill:#B5945C;}
	.st2{fill-rule:evenodd;clip-rule:evenodd;fill:#D0323A;}
	.st3{fill-rule:evenodd;clip-rule:evenodd;fill:#00754E;}
	.st4{fill-rule:evenodd;clip-rule:evenodd;fill:#00609C;}
</style>
<path class="st0" d="M93.2,26.3v-8.6c0-2.7,1.4-4.1,4.2-4.1h4.9c2.8,0,4.2,1.4,4.2,4.1c0,0.2,0,0.2,0,0.3l-3.8,0.5v-0.2
	c0-1.1-0.4-1.4-1.5-1.4h-2.7c-1.1,0-1.5,0.4-1.5,1.4v7.4c0,1.1,0.4,1.4,1.5,1.4h2.7c1.1,0,1.5-0.4,1.5-1.4v-0.2l3.8,0.5
	c0,0.1,0,0.1,0,0.3c0,2.7-1.4,4.1-4.2,4.1h-4.9C94.6,30.4,93.2,29.1,93.2,26.3z"/>
<path class="st0" d="M124.1,17.7v8.6c0,2.7-1.4,4.1-4.2,4.1h-4.9c-2.8,0-4.2-1.4-4.2-4.1v-8.6c0-2.7,1.4-4.1,4.2-4.1h4.9
	C122.7,13.6,124.1,15,124.1,17.7z M118.8,16.9h-2.7c-1.1,0-1.5,0.4-1.5,1.4v7.4c0,1.1,0.4,1.4,1.5,1.4h2.7c1.1,0,1.5-0.4,1.5-1.4
	v-7.4C120.3,17.2,119.9,16.9,118.8,16.9z"/>
<path class="st0" d="M140.1,27v3.2h-11.3V13.8h3.8V27H140.1z"/>
<path class="st0" d="M155.1,27v3.2h-11.3V13.8h3.8V27H155.1z"/>
<path class="st0" d="M162.6,17.1v3.1h6.8v3.2h-6.8V27h7.8v3.2h-11.6V13.8h11.6v3.2H162.6L162.6,17.1z M167.6,12.7l-7.1-1.9l0.7-2.8
	l7.1,1.9L167.6,12.7z"/>
<path class="st0" d="M180.1,20.8h7.4v5.5c0,2.7-1.4,4.1-4.2,4.1h-4.9c-2.8,0-4.2-1.4-4.2-4.1v-8.6c0-2.7,1.4-4.1,4.2-4.1h4.9
	c2.8,0,4.2,1.4,4.2,4.1c0,0.2,0,0.2,0,0.3l-3.8,0.5v-0.2c0-1.1-0.4-1.4-1.5-1.4h-2.7c-1.1,0-1.5,0.4-1.5,1.4v7.4
	c0,1.1,0.4,1.4,1.5,1.4h2.7c1.1,0,1.5-0.4,1.5-1.4v-1.7h-3.7V20.8z"/>
<path class="st0" d="M196,17.1v3.1h6.8v3.2H196V27h7.8v3.2h-11.6V13.8h11.6v3.2H196L196,17.1z"/>
<path class="st0" d="M110.8,40H93.5v1.8h17.2V40z"/>
<path class="st0" d="M110.8,59H93.5v1.8h17.2V59z"/>
<path class="st0" d="M101,48.2V53c0,1.6-0.8,2.4-2.5,2.4h-5.1v-9.5h5.1C100.2,45.9,101,46.6,101,48.2z M98.8,48.6
	c0-0.6-0.2-0.8-0.9-0.8h-2.2v5.8h2.2c0.7,0,0.9-0.2,0.9-0.8V48.6z"/>
<path class="st0" d="M106,47.7v1.8h4v1.9h-4v2.1h4.5v1.9h-6.8v-9.5h6.8v1.9H106L106,47.7z"/>
<path class="st0" d="M134.3,56.7v4.1h-14.4V40h4.8v16.7L134.3,56.7L134.3,56.7z"/>
<path class="st0" d="M142.7,44.1v4h8.7v4.1h-8.7v4.5h9.9v4.1h-14.7V40h14.7v4.1L142.7,44.1L142.7,44.1z M141.4,38l-0.5-3.6l9.4-1.4
	l0.5,3.6L141.4,38z"/>
<path class="st0" d="M174.7,40l-6.5,20.8h-6.7L154.9,40h4.9l4.9,16.2l4.9-16.2H174.7L174.7,40z"/>
<path class="st0" d="M178.2,40h4.8v20.8h-4.8V40z"/>
<path class="st0" d="M187.7,55.9c0-0.3,0-0.3,0-0.4l4.8-0.6v0.2c0,1.3,0.5,1.8,2,1.8h3.5c1.5,0,2-0.5,2-1.8v-0.5
	c0-1.1-0.4-1.4-2.3-1.7l-4.9-0.7c-3.6-0.5-5-1.8-5-4.8v-2.5c0-3.5,1.8-5.2,5.4-5.2h6.1c3.6,0,5.4,1.7,5.4,5.2c0,0.3,0,0.3,0,0.4
	l-4.8,0.6v-0.2c0-1.3-0.5-1.8-2-1.8h-3.3c-1.5,0-2,0.5-2,1.8v0.4c0,1.2,0.3,1.4,2.3,1.7l4.9,0.7c3.7,0.5,5,1.8,5,4.9v2.5
	c0,3.5-1.8,5.2-5.4,5.2H193C189.5,61.1,187.7,59.4,187.7,55.9z"/>
<path class="st0" d="M93.6,72.5h2.8c2.7,0,4.1,1.6,4.1,3.9s-1.4,3.9-4.1,3.9h-2.8V72.5z M96.3,79.1c2,0,2.9-1.1,2.9-2.8
	c0-1.7-0.9-2.8-2.9-2.8h-1.6v5.5L96.3,79.1L96.3,79.1z"/>
<path class="st0" d="M102.7,72.5h5.7v1.1h-4.5v2.1h3.8v1.1h-3.8v2.3h4.5v1.1h-5.7V72.5z"/>
<path class="st0" d="M110.6,72.5h3.3c2,0,2.8,1.1,2.8,2.6c0,1.5-0.9,2.6-2.8,2.6h-2v2.7h-1.2V72.5z M113.9,76.5
	c1.2,0,1.6-0.6,1.6-1.5c0-0.8-0.4-1.4-1.6-1.4h-2.1v2.9H113.9L113.9,76.5z"/>
<path class="st0" d="M118.5,77.2v-4.7h1.2v4.7c0,1.3,0.7,2.1,2.1,2.1c1.4,0,2.1-0.8,2.1-2.1v-4.7h1.2v4.7c0,2-1.2,3.2-3.2,3.2
	C119.7,80.4,118.5,79.2,118.5,77.2z"/>
<path class="st0" d="M127.5,72.5h1.2v7.8h-1.2V72.5z"/>
<path class="st0" d="M130.9,78h1.2c0,0.8,0.6,1.3,1.7,1.3c1.1,0,1.7-0.5,1.7-1.3c0-0.8-0.8-0.9-1.8-1.1c-1.2-0.2-2.6-0.5-2.6-2.2
	c0-1.4,1.1-2.4,2.7-2.4c1.6,0,2.7,0.9,2.7,2.3h-1.2c0-0.7-0.6-1.2-1.5-1.2c-1,0-1.6,0.5-1.6,1.2c0,0.8,0.8,0.9,1.8,1.1
	c1.2,0.2,2.6,0.5,2.6,2.2c0,1.5-1.1,2.4-2.9,2.4C132.1,80.4,130.9,79.5,130.9,78z"/>
<path class="st0" d="M143.8,73.5h-1.5v-1.8h3.4v8.5h-2V73.5z"/>
<path class="st0" d="M148.4,77.8c0-1,0.5-1.7,1.3-2v0c-0.7-0.3-1.1-1-1.1-1.8c0-1.4,1.1-2.4,2.8-2.4c1.7,0,2.8,1,2.8,2.4
	c0,0.8-0.4,1.5-1.1,1.8v0c0.8,0.4,1.3,1,1.3,2c0,1.6-1.2,2.6-3.1,2.6C149.6,80.4,148.4,79.4,148.4,77.8z M152.5,77.6
	c0-0.7-0.4-1-1.1-1h0c-0.7,0-1.1,0.4-1.1,1s0.4,1,1.1,1C152.1,78.6,152.5,78.3,152.5,77.6z M151.4,74.9c0.5,0,0.8-0.3,0.8-0.8
	c0-0.5-0.3-0.8-0.8-0.8s-0.8,0.3-0.8,0.8C150.6,74.6,150.9,74.9,151.4,74.9L151.4,74.9z"/>
<path class="st0" d="M156.6,77.7h2c0.1,0.5,0.5,0.9,1,0.9c0.7,0,1.1-0.5,1.1-1.3c0-0.7-0.4-1.1-1.1-1.1c-0.5,0-0.8,0.2-1,0.6
	l-1.8-0.5l0.6-4.5h4.5v1.8h-3l-0.2,1.6c0.3-0.4,0.7-0.5,1.3-0.5c1.4,0,2.6,1.1,2.6,2.8c0,1.9-1.3,3.1-3.1,3.1
	C158,80.4,156.8,79.3,156.6,77.7z"/>
<path class="st0" d="M164.9,77.7h1.9c0,0.6,0.4,0.9,1,0.9s1-0.4,1-0.9c0-0.6-0.3-1-1.3-1h-0.9v-1.7h0.9c0.8,0,1-0.3,1-0.8
	c0-0.4-0.3-0.8-0.8-0.8c-0.5,0-0.7,0.3-0.8,0.8h-1.9c0-1.7,1.1-2.6,2.7-2.6c1.6,0,2.7,0.9,2.7,2.4c0,0.8-0.3,1.4-1,1.8v0
	c0.8,0.4,1.3,1,1.3,2c0,1.7-1.2,2.7-3,2.7C166.1,80.4,164.9,79.5,164.9,77.7z"/>
<path class="st1" d="M4,4.2v75c0,5.4,4.4,9.8,9.8,9.8h11.6c4.3,0,8.4,2.1,10.9,5.6l3.3,4.6l3.3-4.6c2.5-3.5,6.6-5.6,10.9-5.6h11.8
	c5.4,0,9.8-4.4,9.8-9.8v-75H4z"/>
<path class="st0" d="M34.2,34v-4.6l-11.4-8.4l-11.4,8.4V34l11.4-8.4L34.2,34z"/>
<path class="st0" d="M34.2,36.7l-11.4-8.4l-11.4,8.4v4.6l11.4-8.4l11.4,8.4V36.7z"/>
<path class="st0" d="M11.4,26.6l11.4-8.4l11.4,8.4V22l-11.4-8.4L11.4,22V26.6z"/>
<path class="st2" d="M7.9,46.8v32.4c0,3.2,2.6,5.9,5.9,5.9h11.6c5.6,0,10.9,2.7,14.1,7.3l0.1,0.1l0.1-0.1c0,0,0,0,0,0V46.8H7.9z
	 M24.2,57.8c1.6-1.2,3.6-1.8,7.3-1.8c0.9,0,0.9,0,0.9,0v16.5c0,0,0,0-0.9,0c-3.7,0-5.7,0.6-7.3,1.8V57.8L24.2,57.8z M13.2,75.2v-0.9
	V57.8h0.9v15.6c0,0,0,0,0.9,0c2.8,0,6.6,0.2,8.2,1.8L13.2,75.2L13.2,75.2z M23.3,74.3c-1.6-1.2-3.6-1.8-7.3-1.8c-0.9,0-0.9,0-0.9,0
	V56c0,0,0,0,0.9,0c3.7,0,5.7,0.6,7.3,1.8V74.3z M34.3,74.3v0.9H24.2c1.7-1.6,5.5-1.8,8.2-1.8c0.9,0,0.9,0,0.9,0V57.8h0.9V74.3z"/>
<path class="st3" d="M69.4,66.9c0.1-0.2,0-0.5-0.1-0.6C69.2,66.1,69,66,68.8,66l-0.8,0c-0.2,0-0.4-0.1-0.6-0.3
	c-0.3-0.4-0.8-0.4-1.2-0.1l-1.7,2l0.1-0.9c0-0.2,0-0.4-0.1-0.5c-0.1-0.2-0.4-0.3-0.6-0.3h-0.1c-0.2,0-0.5-0.1-0.6-0.3l-0.5-0.7
	c-0.3-0.4-0.9-0.4-1.2,0L61,65.6c-0.1,0.2-0.4,0.3-0.6,0.3h-0.1c-0.4,0-0.8,0.4-0.7,0.9l0.3,1.7l-0.3,0.2c-0.3,0.2-0.4,0.7-0.2,1
	c0,0,0,0.1,0.1,0.1l1.4,1.6l-2.9,1.7l0-0.3l0-1.7L57.8,64l2.1,0.3c0,0,0.1,0,0.1,0c0.4,0,0.7-0.3,0.7-0.7v-0.4l1.6-0.7
	c0.4-0.2,0.5-0.7,0.3-1.1l-0.1-0.1c-0.1-0.2-0.2-0.4-0.1-0.7l0.3-0.8c0.2-0.5-0.2-1-0.7-1l-0.9,0c-0.2,0-0.5-0.1-0.6-0.3l0-0.1
	C60.4,58.1,60.2,58,60,58c-0.2,0-0.4,0.1-0.5,0.2l-0.6,0.6l0.7-2.6c0.1-0.5-0.2-0.9-0.7-0.9c-0.2,0-0.4-0.1-0.6-0.3l-0.5-0.7
	c-0.1-0.2-0.4-0.3-0.6-0.3s-0.4,0.1-0.6,0.3L56,55c-0.1,0.2-0.4,0.3-0.6,0.3c-0.5,0-0.8,0.5-0.7,0.9l0.7,2.6l-0.6-0.6
	C54.6,58,54.4,58,54.2,58c-0.2,0-0.5,0.1-0.6,0.3l0,0.1c-0.1,0.2-0.3,0.3-0.6,0.3l-0.9,0c-0.5,0-0.8,0.5-0.7,1l0.3,0.8
	c0.1,0.2,0.1,0.5-0.1,0.7l-0.1,0.1c-0.2,0.4-0.1,0.9,0.3,1.1l1.6,0.7v0.4c0,0.4,0.3,0.7,0.7,0.7c0,0,0.1,0,0.1,0l2.1-0.3l-0.1,7.1
	l0,1.7l0,0.2l-2.7-1.6l1.5-1.7c0,0,0,0,0.1-0.1c0.2-0.3,0.2-0.8-0.2-1l-0.3-0.2l0.3-1.7c0.1-0.4-0.3-0.8-0.7-0.9h-0.1
	c-0.2,0-0.5-0.1-0.6-0.3L53,64.8c-0.3-0.4-0.9-0.4-1.2,0l-0.5,0.7c-0.1,0.2-0.4,0.3-0.6,0.3h-0.1c-0.3,0-0.5,0.1-0.6,0.3
	c-0.1,0.2-0.2,0.3-0.1,0.5l0.1,0.9l-1.7-2c-0.3-0.4-0.9-0.3-1.2,0.1c-0.1,0.2-0.3,0.3-0.6,0.3l-0.8,0c-0.2,0-0.4,0.1-0.6,0.3
	c-0.1,0.2-0.2,0.4-0.1,0.6l0.2,0.8c0.1,0.2,0,0.5-0.1,0.6c-0.3,0.4-0.1,0.9,0.3,1.1l2.5,0.9l-0.9,0.2c-0.2,0-0.4,0.2-0.5,0.3
	c-0.1,0.2-0.2,0.5-0.1,0.7l0,0.1c0.1,0.2,0.1,0.5-0.1,0.7l-0.5,0.8c-0.3,0.4,0,1,0.4,1.1l0.9,0.2c0.2,0.1,0.4,0.2,0.5,0.4l0,0.1
	c0.2,0.4,0.7,0.6,1,0.4l1.5-0.9l0.3,0.2c0.3,0.2,0.8,0.1,1-0.2c0,0,0-0.1,0-0.1l0.9-1.8l3.4,2.2l-0.1,2.9c0,0.3,0.2,0.5,0.5,0.5h0.8
	c0.3,0,0.5-0.2,0.5-0.5l-0.1-2.9l3.6-2.4l1,1.9c0,0,0,0.1,0,0.1c0.2,0.3,0.7,0.4,1,0.2l0.3-0.2l1.5,0.9c0.4,0.2,0.9,0.1,1-0.4l0-0.1
	c0.1-0.2,0.3-0.4,0.5-0.4l0.9-0.2c0.5-0.1,0.7-0.7,0.4-1.1l-0.5-0.8c-0.1-0.2-0.1-0.4-0.1-0.7l0-0.1c0.1-0.2,0.1-0.5-0.1-0.7
	c-0.1-0.2-0.3-0.3-0.5-0.3l-0.9-0.2l2.5-0.9c0.5-0.2,0.6-0.7,0.3-1.1c-0.1-0.2-0.2-0.4-0.1-0.6L69.4,66.9z"/>
<path class="st4" d="M39.5,8.1v38.7h31.8V8.1H39.5z M63.9,32.1c0.7-2.4-1.9-4.2-3.7-2.8c-0.8,0.6-0.9,1.7-1.2,2.9c0.1,0,2.9,0,2.9,0
	v2.4c0,0-4.4,0-4.7,0c0.2,1.3,1.2,2.2,2.8,1.9c-0.1,1.4-1.1,2-2.7,1.7c-0.1,1.7-0.8,2.7-1.9,3.4c-1.1-0.7-1.8-1.7-1.9-3.4
	c-1.6,0.3-2.7-0.3-2.7-1.7c1.6,0.4,2.6-0.6,2.8-1.9c-0.3,0-4.7,0-4.7,0v-2.4c0,0,2.7,0,2.9,0c-0.2-1.2-0.4-2.3-1.2-2.9
	c-1.7-1.4-4.4,0.4-3.7,2.8c-1.9-0.8-3.4-2.3-3.1-4.8c0.2-1.5,1.1-2.6,2.3-3.3c1.2-0.6,3.1-0.7,4.4,0.1c2.2,1.4,2.8,4.5,2.9,8h0.7
	c0-2.6-0.3-4.5-1-6.4c-0.7-1.9-1.9-3.3-1.9-5.6c0-1.6,0.7-2.9,1.5-3.9c0.8-1.1,1.7-2.2,2.5-3.1c0.8,0.8,1.7,1.9,2.5,3.1
	c0.8,1.1,1.5,2.3,1.5,3.9c0,2.3-1.2,3.7-1.9,5.6c-0.7,1.9-0.9,3.9-1,6.4h0.7c0.1-3.5,0.7-6.7,2.9-8c1.3-0.8,3.2-0.7,4.4-0.1
	c1.2,0.6,2.2,1.8,2.3,3.3C67.3,29.9,65.8,31.3,63.9,32.1z"/>
</svg>
