<?xml version="1.0" encoding="utf-8"?>
<!-- Generator: Adobe Illustrator 26.4.1, SVG Export Plug-In . SVG Version: 6.00 Build 0)  -->
<svg version="1.1" id="Logo" xmlns="http://www.w3.org/2000/svg" xmlns:xlink="http://www.w3.org/1999/xlink" x="0px" y="0px"
	 viewBox="0 0 439.24 155.84" style="enable-background:new 0 0 439.24 155.84;" xml:space="preserve">
<style type="text/css">
	.st0{fill:#ED1C24;}
</style>
<g>
	<path class="st0" d="M220.06,0h5.3v52.05h-5.75V11.5L200.2,43.31l-19.49-31.74v40.47h-5.75V0h5.38l19.86,33.01L220.06,0z
		 M269.05,14.41v37.64h-5.53v-5.6c-2.17,3.81-6.57,6.72-13.37,6.72c-5.3,0-9.86-1.87-13.52-5.67c-3.66-3.81-5.53-8.59-5.53-14.26
		c0-5.68,1.87-10.38,5.53-14.19c3.66-3.81,8.21-5.75,13.52-5.75c6.79,0,11.2,2.91,13.37,6.72v-5.6H269.05z M264.2,33.23
		c0-4.26-1.34-7.77-4.03-10.53c-2.61-2.84-5.98-4.26-10.01-4.26c-3.88,0-7.09,1.42-9.71,4.26c-2.54,2.76-3.81,6.27-3.81,10.53
		c0,4.26,1.27,7.77,3.81,10.6c2.61,2.76,5.82,4.18,9.71,4.18c4.03,0,7.39-1.42,10.01-4.18C262.85,41,264.2,37.49,264.2,33.23z
		 M282.27,30.17c0-6.27,4.26-10.6,10.16-10.6c1.49,0,2.76,0.15,3.73,0.37v-5.97c-0.67-0.07-1.49-0.15-2.31-0.15
		c-5.45,0-9.56,2.76-11.57,6.94v-6.35h-5.53v37.64h5.53V30.17z M317.97,53.17c5.82,0,10.6-1.87,14.26-5.67l-3.36-3.88
		c-2.84,2.91-6.5,4.41-10.9,4.41c-4.18,0-7.62-1.42-10.38-4.18c-2.76-2.84-4.11-6.35-4.11-10.6c0-4.26,1.34-7.77,4.11-10.53
		c2.76-2.84,6.2-4.26,10.38-4.26c4.41,0,8.06,1.49,10.9,4.41l3.36-3.88c-3.66-3.81-8.44-5.67-14.26-5.67
		c-5.6,0-10.3,1.94-14.19,5.75c-3.88,3.81-5.82,8.51-5.82,14.19c0,5.67,1.94,10.45,5.82,14.26
		C307.66,51.3,312.37,53.17,317.97,53.17z M371.89,34.43h-30.54c0.3,8.29,5.6,13.59,13.44,13.59c5.15,0,8.21-1.64,11.57-5.23
		l3.66,3.58c-3.96,4.41-9.03,6.65-15.23,6.65c-5.6,0-10.23-1.79-13.74-5.3c-3.51-3.51-5.23-8.21-5.23-14.04v-0.3
		c0-6.05,1.79-10.9,5.3-14.56c3.51-3.66,8.07-5.53,13.52-5.53c5.15,0,9.26,1.79,12.47,5.45c3.21,3.58,4.85,7.99,4.85,13.29
		C371.96,32.86,371.96,33.68,371.89,34.43z M366.06,29.57c0-3.06-1.12-5.68-3.36-7.84s-4.93-3.29-8.06-3.29
		c-3.43,0-6.42,1.12-8.89,3.29c-2.46,2.17-3.81,4.78-4.03,7.84H366.06z M383.46,0h-5.53v52.05h5.53V0z M396.9,0h-5.53v52.05h5.53V0z
		 M439.17,34.43h-30.54c0.3,8.29,5.6,13.59,13.44,13.59c5.15,0,8.21-1.64,11.57-5.23l3.66,3.58c-3.96,4.41-9.04,6.65-15.23,6.65
		c-5.6,0-10.23-1.79-13.74-5.3c-3.51-3.51-5.23-8.21-5.23-14.04v-0.3c0-6.05,1.79-10.9,5.3-14.56c3.51-3.66,8.07-5.53,13.52-5.53
		c5.15,0,9.26,1.79,12.47,5.45c3.21,3.58,4.85,7.99,4.85,13.29C439.24,32.86,439.24,33.68,439.17,34.43z M433.34,29.57
		c0-3.06-1.12-5.68-3.36-7.84c-2.24-2.17-4.93-3.29-8.06-3.29c-3.43,0-6.42,1.12-8.89,3.29c-2.46,2.17-3.81,4.78-4.03,7.84H433.34z
		 M200.2,98.97l-19.86-33.01h-5.38v52.05h5.75V77.54l19.49,31.74l19.42-31.81v40.55h5.75V65.97h-5.3L200.2,98.97z M269.05,80.38
		v37.64h-5.53v-5.6c-2.17,3.81-6.57,6.72-13.37,6.72c-5.3,0-9.86-1.87-13.52-5.67c-3.66-3.81-5.53-8.59-5.53-14.26
		c0-5.68,1.87-10.38,5.53-14.19c3.66-3.81,8.21-5.75,13.52-5.75c6.79,0,11.2,2.91,13.37,6.72v-5.6H269.05z M264.2,99.2
		c0-4.26-1.34-7.77-4.03-10.53c-2.61-2.84-5.98-4.26-10.01-4.26c-3.88,0-7.09,1.42-9.71,4.26c-2.54,2.76-3.81,6.27-3.81,10.53
		c0,4.26,1.27,7.77,3.81,10.6c2.61,2.76,5.82,4.18,9.71,4.18c4.03,0,7.39-1.42,10.01-4.18C262.85,106.96,264.2,103.45,264.2,99.2z
		 M276.82,118.02h5.53V65.97h-5.53V118.02z M295.79,65.97h-5.53v52.05h5.53V65.97z M338.05,100.39h-30.54
		c0.3,8.29,5.6,13.59,13.44,13.59c5.15,0,8.21-1.64,11.57-5.23l3.66,3.58c-3.96,4.41-9.04,6.65-15.23,6.65
		c-5.6,0-10.23-1.79-13.74-5.3c-3.51-3.51-5.23-8.21-5.23-14.04v-0.3c0-6.05,1.79-10.9,5.3-14.56c3.51-3.66,8.07-5.53,13.52-5.53
		c5.15,0,9.26,1.79,12.47,5.45c3.21,3.58,4.85,7.99,4.85,13.29C338.13,98.83,338.13,99.65,338.05,100.39z M332.23,95.54
		c0-3.06-1.12-5.68-3.36-7.84c-2.24-2.17-4.93-3.29-8.06-3.29c-3.43,0-6.42,1.12-8.89,3.29c-2.46,2.17-3.81,4.78-4.03,7.84H332.23z
		 M352.32,65.97h-5.53v14.41h-4.78v5.15h4.78v32.48h5.53V85.53h8.36v-5.15h-8.36V65.97z M179.3,147.07l-1.27-0.57
		c-0.23-0.12-0.51-0.32-0.86-0.55c-0.67-0.51-0.87-1.01-0.87-1.77c0-1.2,1.03-2.09,2.36-2.09c1.16,0,2.02,0.51,2.57,1.54l1.41-0.72
		c-0.84-1.56-2.17-2.34-3.97-2.34c-1.16,0-2.13,0.34-2.89,1.03c-0.76,0.7-1.14,1.56-1.14,2.62c0,1.08,0.32,1.92,0.93,2.49
		c0.61,0.57,1.6,1.16,2.93,1.75c1.2,0.53,2.07,1.01,2.55,1.43c0.49,0.42,0.74,1.03,0.74,1.84c0,0.51-0.11,0.95-0.46,1.56
		c-0.36,0.61-1.24,1.03-2.49,1.03c-1.73,0-2.95-0.89-3.69-2.66l-1.41,0.65c0.84,2.34,2.74,3.52,5.09,3.52c1.45,0,2.59-0.38,3.4-1.16
		c0.82-0.78,1.22-1.77,1.22-2.97c0-1.16-0.32-2.05-0.97-2.68C181.85,148.38,180.79,147.72,179.3,147.07z M192.78,148.54h6.27v-1.52
		h-6.27v-4.66h6.67v-1.52h-8.31v14.7h8.46v-1.52h-6.82V148.54z M214.13,154.33c-1.73,0-3.17-0.57-4.3-1.73
		c-1.14-1.16-1.71-2.64-1.71-4.39c0-1.75,0.57-3.21,1.71-4.37c1.14-1.16,2.57-1.75,4.3-1.75c1.86,0,3.35,0.65,4.49,1.98l1.12-1.01
		c-1.48-1.67-3.35-2.49-5.61-2.49c-2.13,0-3.95,0.74-5.44,2.2c-1.48,1.46-2.22,3.27-2.22,5.44c0,2.17,0.74,4.01,2.22,5.46
		c1.5,1.46,3.31,2.17,5.44,2.17c2.3,0,4.2-0.86,5.67-2.57l-1.12-1.01C217.55,153.63,216.03,154.33,214.13,154.33z M239.26,142.76
		c1.5,1.46,2.24,3.27,2.24,5.44c0,2.17-0.74,4.01-2.24,5.46c-1.48,1.46-3.29,2.17-5.42,2.17c-2.13,0-3.95-0.72-5.44-2.17
		c-1.48-1.45-2.22-3.29-2.22-5.46c0-2.17,0.74-3.99,2.22-5.44c1.5-1.46,3.31-2.2,5.44-2.2
		C235.97,140.57,237.78,141.31,239.26,142.76z M239.85,148.21c0-1.75-0.57-3.21-1.71-4.37c-1.14-1.16-2.57-1.75-4.3-1.75
		c-1.73,0-3.17,0.59-4.33,1.75c-1.14,1.16-1.71,2.62-1.71,4.37c0,1.75,0.57,3.23,1.71,4.39c1.16,1.16,2.6,1.73,4.33,1.73
		c1.73,0,3.16-0.57,4.3-1.73C239.28,151.44,239.85,149.96,239.85,148.21z M259.45,152.62l-8.88-11.77h-1.43v14.7h1.64v-11.9
		l8.99,11.9h1.33v-14.7h-1.65V152.62z M279.96,142.87c1.37,1.35,2.05,3.12,2.05,5.34c0,2.22-0.67,3.99-2.02,5.34
		c-1.35,1.33-3.21,2-5.55,2h-4.75v-14.7h4.72C276.76,140.85,278.61,141.52,279.96,142.87z M280.37,148.21
		c0-3.57-2.09-5.84-6.08-5.84h-2.95v11.67h2.98C278.28,154.03,280.37,151.75,280.37,148.21z M295.16,140.85l6.22,14.7h-1.77
		l-1.52-3.63h-7.13l-1.52,3.63h-1.77l6.22-14.7H295.16z M297.46,150.4l-2.93-7l-2.93,7H297.46z M308.85,155.55h1.64v-14.7h-1.64
		V155.55z M325.8,149.41l3.54,6.14h-1.88l-3.31-5.82h-0.02h-3.31v5.82h-1.64v-14.7h5.02c1.22,0,2.26,0.42,3.12,1.27
		c0.86,0.82,1.29,1.88,1.29,3.12C328.6,147.17,327.48,148.76,325.8,149.41z M326.11,147.36c0.57-0.57,0.84-1.27,0.84-2.13
		c0-1.62-1.2-2.87-2.83-2.87h-3.31v5.84h3.21C324.87,148.21,325.56,147.93,326.11,147.36z M338.31,148.54h6.27v-1.52h-6.27v-4.66
		h6.67v-1.52h-8.31v14.7h8.46v-1.52h-6.82V148.54z M374.24,142.13c0.86,0.85,1.31,1.9,1.31,3.19c0,1.29-0.44,2.34-1.31,3.21
		c-0.87,0.84-1.94,1.27-3.19,1.27H368v5.76h-1.64v-14.7h4.7C372.3,140.85,373.38,141.27,374.24,142.13z M373.9,145.32
		c0-0.84-0.27-1.54-0.84-2.11c-0.55-0.57-1.25-0.84-2.07-0.84h-3v5.91h3c0.82,0,1.52-0.27,2.07-0.84
		C373.63,146.86,373.9,146.16,373.9,145.32z M389.77,149.41l3.54,6.14h-1.88l-3.31-5.82h-0.02h-3.31v5.82h-1.64v-14.7h5.02
		c1.22,0,2.26,0.42,3.12,1.27c0.86,0.82,1.29,1.88,1.29,3.12C392.58,147.17,391.46,148.76,389.77,149.41z M390.09,147.36
		c0.57-0.57,0.84-1.27,0.84-2.13c0-1.62-1.2-2.87-2.83-2.87h-3.31v5.84H388C388.84,148.21,389.54,147.93,390.09,147.36z
		 M400.73,155.55h1.64v-14.7h-1.64V155.55z M416.59,152.79l-4.96-11.94h-1.79l6.16,14.7h1.16l6.16-14.7h-1.79L416.59,152.79z
		 M437.23,136.77h-2.09l-1.12,3.06h1.24L437.23,136.77z M432.35,154.03v-5.49h6.27v-1.52h-6.27v-4.66h6.67v-1.52h-8.31v14.7h8.46
		v-1.52H432.35z M0,94.37v30.58c25.17,0,47.5,12.15,61.45,30.9c13.95-18.75,36.28-30.9,61.45-30.9V94.37
		c-22.9,0-44.1,7.25-61.45,19.57C44.1,101.61,22.9,94.37,0,94.37z M61.45,19.58C44.1,7.26,22.9,0,0,0v83.66
		c10.55,0,20.77,1.42,30.5,4.04v-50.8c12.35,5.37,23.01,13.89,30.95,24.56C69.4,50.8,80.06,42.28,92.41,36.91v50.8
		c9.73-2.62,19.94-4.04,30.5-4.04V0C100,0,78.8,7.26,61.45,19.58z"/>
</g>
</svg>
